<svg xmlns="http://www.w3.org/2000/svg" width="13.849" height="11.87" viewBox="0 0 13.849 11.87">
  <g id="categories" transform="translate(-2.25 -4.5)">
    <path id="Path_238" data-name="Path 238" d="M4.6,5.489l.222.44.272.549H7.2V8.951H3.239V5.489H4.6M4.911,4.5H2.745a.5.5,0,0,0-.495.495V9.446a.5.5,0,0,0,.495.495H7.691a.5.5,0,0,0,.495-.495V5.984a.5.5,0,0,0-.495-.495H5.712l-.356-.717A.5.5,0,0,0,4.911,4.5Z" transform="translate(0)" fill="#fff"/>
    <path id="Path_239" data-name="Path 239" d="M22.6,5.489l.222.44.272.549h2.1V8.951H21.239V5.489H22.6m.307-.989H20.745a.5.5,0,0,0-.495.495V9.446a.5.5,0,0,0,.495.495h4.946a.5.5,0,0,0,.495-.495V5.984a.5.5,0,0,0-.495-.495H23.712l-.356-.717A.5.5,0,0,0,22.911,4.5Z" transform="translate(-10.087)" fill="#fff"/>
    <path id="Path_240" data-name="Path 240" d="M4.6,20.114l.222.44L5.1,21.1H7.2v2.473H3.239V20.114H4.6m.307-.989H2.745a.5.5,0,0,0-.495.495v4.451a.5.5,0,0,0,.495.495H7.691a.5.5,0,0,0,.495-.495V20.609a.5.5,0,0,0-.495-.495H5.712L5.356,19.4a.5.5,0,0,0-.445-.272Z" transform="translate(0 -8.195)" fill="#fff"/>
    <path id="Path_241" data-name="Path 241" d="M22.6,20.114l.222.44.272.549h2.1v2.473H21.239V20.114H22.6m.307-.989H20.745a.5.5,0,0,0-.495.495v4.451a.5.5,0,0,0,.495.495h4.946a.5.5,0,0,0,.495-.495V20.609a.5.5,0,0,0-.495-.495H23.712l-.356-.717A.5.5,0,0,0,22.911,19.125Z" transform="translate(-10.087 -8.195)" fill="#fff"/>
  </g>
</svg>
