<svg xmlns="http://www.w3.org/2000/svg" width="15.883" height="10.711" viewBox="0 0 15.883 10.711">
  <path id="dashboard" d="M7.941,9.174A7.947,7.947,0,0,0,.5,19.885H2.668a5.956,5.956,0,1,1,10.547,0h2.172A7.947,7.947,0,0,0,7.941,9.174Zm0,3.119a.993.993,0,1,0,.993.993A.992.992,0,0,0,7.941,12.292Zm-2.977.972a.993.993,0,1,0,.993.993A.992.992,0,0,0,4.964,13.265Zm5.954,0a.993.993,0,1,0,.993.993A.992.992,0,0,0,10.919,13.265ZM7.941,15.213l-.778,3.893v.778H8.72v-.778Z" transform="translate(0 -9.174)" fill="#fff"/>
</svg>
